<?xml version="1.0" standalone="no"?>
<!DOCTYPE svg PUBLIC "-//W3C//DTD SVG 20010904//EN"
 "http://www.w3.org/TR/2001/REC-SVG-20010904/DTD/svg10.dtd">
<svg version="1.0" xmlns="http://www.w3.org/2000/svg"
 width="3300.000000pt" height="3300.000000pt" viewBox="0 0 3300.000000 3300.000000"
 preserveAspectRatio="xMidYMid meet">
<metadata>
Created by potrace 1.14, written by Peter Selinger 2001-2017
</metadata>
<g transform="translate(0.000000,3300.000000) scale(0.100000,-0.100000)"
fill="#000000" stroke="none">
<path d="M4880 19595 l0 -3620 308 1 c169 1 310 2 313 3 8 1 8 7231 0 7232 -3
0 -144 1 -314 2 l-307 2 0 -3620z"/>
<path d="M8580 23212 c0 -5 -8 -17 -18 -28 -9 -10 -51 -59 -92 -109 -41 -49
-78 -92 -81 -95 -3 -3 -30 -34 -60 -70 -29 -36 -58 -70 -64 -76 -5 -6 -26 -31
-46 -55 -53 -64 -557 -658 -588 -694 -14 -17 -84 -100 -156 -185 -71 -85 -139
-166 -151 -180 -12 -14 -90 -106 -174 -205 -83 -99 -169 -200 -190 -225 -21
-25 -118 -139 -216 -255 -97 -115 -196 -232 -219 -260 -115 -135 -234 -276
-271 -321 -23 -27 -145 -170 -270 -319 -126 -148 -236 -279 -245 -290 -10 -11
-61 -71 -114 -134 -96 -113 -96 -113 -78 -135 11 -11 36 -41 57 -66 21 -25 48
-56 60 -70 12 -14 44 -52 71 -85 28 -33 77 -92 110 -131 201 -236 814 -962
865 -1024 25 -30 48 -57 51 -60 4 -3 95 -111 204 -240 108 -129 207 -246 218
-260 12 -14 47 -55 77 -90 30 -36 57 -67 60 -70 3 -3 60 -70 127 -150 67 -80
130 -154 140 -165 10 -11 38 -45 63 -75 25 -30 55 -66 67 -80 11 -14 89 -106
173 -205 189 -224 232 -275 245 -289 6 -6 55 -65 110 -131 55 -66 102 -122
105 -125 3 -3 41 -48 85 -100 44 -52 90 -107 103 -121 12 -14 29 -34 36 -45
14 -18 33 -19 420 -19 223 0 406 2 406 5 -1 3 -11 17 -23 31 -12 14 -56 66
-97 115 -41 49 -77 91 -80 94 -7 6 -85 99 -190 225 -46 55 -104 125 -130 155
-26 30 -114 134 -195 230 -81 96 -164 195 -185 220 -21 25 -138 164 -261 310
-122 146 -225 267 -229 270 -3 3 -24 28 -45 55 -22 28 -42 52 -45 55 -3 3 -30
34 -60 70 -30 36 -57 67 -60 70 -3 3 -75 88 -160 190 -143 171 -188 224 -215
254 -6 6 -42 49 -80 96 -38 47 -72 87 -75 90 -3 3 -41 48 -85 100 -44 52 -90
106 -101 120 -12 14 -64 75 -116 135 -51 61 -129 153 -173 205 -44 52 -84 100
-90 106 -20 21 -319 374 -344 406 -12 16 -8 25 35 75 27 32 54 64 61 71 7 7
29 34 50 59 21 26 45 54 53 63 19 20 23 26 260 305 107 127 204 241 216 255
119 140 163 191 249 295 55 66 102 122 105 125 3 3 41 48 85 100 44 52 90 106
102 120 23 27 473 562 501 595 9 11 53 63 97 115 44 52 89 105 100 119 11 14
36 43 56 65 29 34 79 93 271 321 9 11 108 128 219 260 111 132 234 278 273
325 39 47 73 87 76 90 12 11 216 256 224 268 6 9 -78 12 -403 12 -226 0 -411
-4 -411 -8z"/>
<path d="M12968 23215 c-1 -1 -46 -5 -99 -9 -53 -3 -102 -8 -110 -10 -8 -3
-36 -7 -64 -10 -27 -3 -75 -10 -105 -15 -30 -6 -66 -12 -80 -15 -49 -8 -197
-46 -280 -71 -47 -15 -89 -28 -95 -29 -5 -2 -19 -6 -30 -10 -480 -176 -850
-409 -1185 -745 -157 -158 -170 -172 -277 -311 -147 -191 -295 -438 -377 -630
-15 -36 -34 -79 -42 -96 -49 -111 -149 -437 -168 -551 -3 -16 -12 -68 -20
-118 -35 -204 -43 -318 -40 -550 2 -256 12 -355 60 -600 142 -721 561 -1392
1164 -1862 294 -228 680 -422 1060 -531 101 -29 288 -71 340 -77 14 -1 45 -5
70 -9 142 -23 227 -29 429 -30 470 -4 906 90 1336 287 335 154 635 365 910
641 408 411 689 910 826 1471 16 66 32 140 35 165 3 25 7 47 9 50 2 3 6 29 10
59 4 30 9 63 11 75 18 91 25 517 11 674 -55 612 -292 1199 -677 1682 -87 109
-310 339 -418 430 -460 393 -1061 656 -1657 726 -33 3 -73 8 -90 10 -39 5
-452 13 -457 9z m395 -639 c379 -28 823 -185 1162 -411 207 -139 410 -321 550
-495 33 -41 63 -77 66 -80 28 -25 181 -276 237 -391 113 -228 149 -328 201
-549 27 -113 37 -174 57 -325 10 -79 12 -351 3 -450 -55 -646 -350 -1239 -829
-1670 -220 -198 -545 -394 -795 -480 -27 -9 -57 -20 -66 -25 -21 -11 -219 -65
-289 -79 -30 -6 -66 -14 -80 -16 -14 -3 -43 -8 -65 -11 -22 -3 -51 -7 -65 -10
-126 -21 -492 -21 -630 0 -14 2 -45 7 -70 11 -92 14 -106 17 -165 32 -33 8
-67 16 -75 18 -94 18 -319 101 -460 168 -663 316 -1166 927 -1344 1633 -58
226 -78 383 -79 598 -1 127 8 305 17 356 3 14 10 57 16 95 95 602 444 1182
943 1568 385 298 843 474 1337 515 99 8 296 7 423 -2z"/>
<path d="M17918 23213 c-3 -4 -4 -1635 -4 -3623 l1 -3615 1045 1 c1001 0 1161
3 1295 24 33 5 76 11 95 14 126 16 393 90 553 152 313 123 620 310 877 532 81
71 271 259 335 333 72 83 85 99 159 197 272 360 479 778 611 1235 19 65 37
128 40 140 28 130 56 270 60 302 3 22 10 65 15 95 5 30 12 80 15 110 3 30 8
71 10 90 21 173 21 608 0 780 -1 14 -6 57 -9 95 -10 94 -41 282 -70 420 -41
196 -148 525 -226 700 -187 415 -361 689 -635 1000 -391 443 -951 795 -1482
931 -108 27 -247 54 -368 70 -27 3 -61 9 -75 11 -43 9 -2238 14 -2242 6z
m2112 -634 c113 -12 163 -19 180 -24 8 -2 27 -7 43 -10 68 -13 86 -17 142 -31
387 -99 784 -329 1093 -633 136 -133 193 -197 297 -336 334 -445 549 -1002
609 -1580 15 -142 18 -204 18 -355 1 -225 -16 -440 -48 -604 -64 -337 -151
-604 -282 -871 -326 -662 -840 -1147 -1470 -1385 -112 -42 -273 -88 -367 -104
-16 -3 -41 -8 -55 -11 -30 -6 -81 -12 -175 -22 -38 -4 -385 -8 -770 -8 l-700
0 -1 2993 0 2992 705 -1 c389 -1 740 -5 781 -10z"/>
<path d="M24680 23152 c-4 -521 0 -7164 3 -7169 3 -5 772 -8 1709 -8 l1703 0
3 295 2 295 -1386 0 c-762 0 -1391 3 -1396 6 -8 5 -11 409 -10 1341 0 733 1
1347 1 1363 l1 30 1378 0 c757 -1 1385 1 1395 3 16 4 17 24 15 296 l-3 291
-1393 0 c-765 0 -1392 2 -1393 5 -1 7 -1 2690 0 2712 1 16 82 17 1339 17 735
0 1363 1 1395 1 l57 0 0 295 0 294 -1710 0 -1710 0 0 -67z"/>
<path d="M8931 13790 c-5 -3 -8 -903 -7 -2000 l1 -1995 170 0 170 0 3 1998 c1
1098 -1 1997 -5 1998 -30 4 -326 3 -332 -1z"/>
<path d="M10939 13756 c-18 -22 -43 -52 -55 -66 -22 -24 -149 -174 -182 -215
-41 -49 -347 -411 -352 -415 -3 -3 -28 -32 -55 -65 -28 -33 -59 -71 -71 -85
-12 -14 -50 -59 -85 -100 -36 -41 -100 -118 -144 -170 -44 -52 -84 -100 -90
-106 -5 -6 -27 -32 -49 -58 -21 -25 -159 -189 -306 -363 l-268 -317 46 -56
c26 -30 49 -57 52 -60 3 -3 39 -45 80 -95 41 -49 80 -95 85 -101 6 -6 30 -36
55 -65 25 -30 72 -85 105 -124 33 -38 132 -155 220 -259 88 -104 227 -269 308
-365 82 -97 168 -198 190 -226 23 -27 56 -65 73 -85 17 -19 91 -107 164 -195
74 -88 150 -178 169 -200 20 -22 54 -62 76 -89 22 -27 47 -56 55 -65 13 -15
41 -17 237 -18 158 0 220 3 216 11 -6 10 -141 174 -153 186 -3 3 -25 30 -50
60 -25 30 -47 57 -50 60 -4 3 -95 111 -204 240 -109 129 -208 246 -219 260
-12 14 -42 50 -67 80 -25 30 -47 57 -50 60 -3 3 -43 49 -88 103 -45 53 -118
140 -162 192 -44 52 -117 139 -162 193 -45 53 -107 126 -138 162 -191 221
-331 392 -328 399 3 8 303 367 318 381 6 6 183 215 300 355 41 49 85 101 97
115 11 14 65 77 118 140 54 63 111 131 127 150 47 55 91 108 329 390 122 146
257 306 299 355 42 50 79 95 83 102 5 8 -51 11 -217 11 l-224 0 -33 -42z"/>
<path d="M12330 11793 l0 -2003 1150 0 1150 0 0 163 0 162 -975 0 c-643 0
-975 3 -976 10 -1 5 -2 833 -3 1839 l-1 1830 -173 0 -172 1 0 -2002z"/>
<path d="M16538 13795 c-2 -1 -36 -5 -76 -9 -104 -9 -246 -40 -369 -81 -630
-211 -1086 -769 -1171 -1432 -9 -75 -9 -364 1 -428 29 -193 69 -336 136 -486
286 -642 911 -1043 1612 -1033 155 2 205 7 364 39 118 24 324 104 452 174 210
117 440 320 575 511 167 234 283 539 314 820 36 333 -25 670 -177 973 -38 76
-143 245 -158 257 -4 3 -14 15 -23 28 -34 50 -148 170 -228 240 -150 131 -314
231 -502 306 -147 58 -279 92 -428 111 -55 7 -316 15 -322 10z m287 -358 c17
-4 46 -9 65 -12 113 -18 272 -70 382 -126 578 -291 875 -941 722 -1579 -39
-161 -141 -370 -248 -509 -167 -217 -439 -403 -701 -480 -38 -11 -85 -23 -104
-26 -19 -3 -37 -8 -40 -10 -15 -8 -155 -19 -256 -19 -114 1 -198 8 -275 26
-25 5 -54 11 -65 14 -144 29 -381 148 -525 263 -223 178 -396 441 -470 713
-19 72 -23 92 -40 193 -15 92 -5 351 18 451 44 193 112 357 210 499 271 394
694 615 1167 610 72 -1 144 -5 160 -8z"/>
<path d="M20150 13794 c-20 -3 -164 -28 -170 -29 -206 -44 -425 -196 -546
-377 -99 -148 -137 -281 -138 -483 -1 -77 3 -164 7 -193 16 -105 73 -244 137
-337 109 -158 375 -356 755 -560 119 -64 277 -156 345 -200 141 -91 282 -220
325 -297 77 -136 98 -227 99 -418 0 -129 -4 -170 -23 -245 -25 -100 -86 -234
-127 -280 -14 -16 -33 -39 -43 -50 -32 -41 -128 -111 -191 -142 -110 -53 -214
-75 -367 -77 -230 -4 -427 72 -583 224 -70 69 -161 221 -190 318 -7 23 -16 42
-20 42 -4 0 -41 -18 -81 -40 -41 -23 -102 -54 -137 -71 -35 -17 -66 -37 -68
-44 -10 -25 100 -230 179 -333 142 -185 344 -317 565 -372 240 -60 552 -43
775 42 310 118 519 355 607 688 28 104 39 228 35 395 -2 94 -8 186 -14 205 -6
19 -12 46 -14 60 -17 94 -78 236 -138 316 -57 78 -150 169 -249 245 -93 70
-274 189 -290 189 -6 0 -10 3 -10 8 0 4 -10 12 -23 18 -180 88 -420 225 -532
303 -100 69 -241 208 -289 283 -38 60 -71 137 -83 191 -8 41 -9 190 -1 242 38
231 217 413 453 460 17 4 74 8 128 10 246 8 463 -90 575 -261 15 -23 32 -48
37 -57 8 -12 32 -2 142 65 l133 80 -16 31 c-30 58 -114 165 -171 217 -133 121
-277 190 -473 226 -35 6 -281 13 -310 8z"/>
<path d="M23265 13789 c-115 -16 -147 -23 -240 -56 -316 -110 -546 -391 -582
-711 -12 -109 -7 -255 12 -351 25 -126 109 -283 211 -393 79 -86 288 -243 437
-329 33 -19 71 -41 85 -50 15 -9 97 -54 182 -101 223 -123 226 -124 325 -191
174 -116 273 -212 329 -317 39 -75 71 -173 81 -251 8 -55 8 -220 1 -274 -49
-378 -276 -610 -635 -653 -74 -9 -204 -8 -264 2 -296 50 -514 231 -617 515
-13 34 -25 61 -29 61 -6 -1 -234 -122 -275 -146 -17 -10 -15 -17 31 -111 211
-423 539 -633 993 -637 182 -1 269 10 410 51 310 89 549 314 656 615 16 46 44
158 49 196 39 293 14 555 -73 742 -107 232 -339 428 -792 670 -315 168 -440
251 -563 374 -149 149 -208 277 -209 451 0 305 184 530 478 583 49 8 231 8
284 -1 178 -31 321 -127 424 -284 l28 -42 42 28 c22 15 48 31 56 34 33 15 154
95 157 104 6 17 -93 155 -158 221 -34 34 -95 84 -135 111 -67 45 -197 104
-255 115 -13 2 -46 10 -74 16 -57 14 -296 20 -370 9z"/>
<path d="M25169 13737 c21 -34 131 -215 245 -402 115 -187 223 -364 242 -392
19 -29 34 -57 34 -63 0 -5 5 -10 10 -10 6 0 10 -4 10 -9 0 -8 93 -162 295
-488 16 -26 41 -67 55 -90 14 -23 45 -75 70 -115 25 -40 48 -80 52 -88 5 -8
66 -109 137 -223 l129 -208 0 -912 c1 -502 1 -919 1 -928 1 -14 22 -16 173
-15 l173 1 0 930 0 930 53 83 c28 46 52 86 52 88 0 3 5 10 10 17 6 7 141 228
301 492 161 264 322 530 359 590 73 120 343 564 369 607 42 70 136 225 148
244 l13 21 -198 1 -199 0 -159 -270 c-87 -149 -170 -289 -183 -312 -29 -51
-337 -574 -397 -674 -24 -40 -44 -75 -44 -78 0 -2 -15 -28 -34 -57 -18 -28
-84 -139 -146 -244 -62 -106 -115 -193 -119 -193 -5 1 -76 121 -241 406 -14
24 -68 116 -120 205 -52 89 -107 183 -121 208 -14 25 -104 179 -199 341 -95
162 -181 309 -190 325 -32 55 -176 300 -190 321 -13 21 -20 21 -221 22 l-208
0 38 -61z"/>
<path d="M6050 13765 c-37 -15 -381 -144 -860 -324 -162 -60 -293 -114 -291
-118 2 -4 110 -51 240 -104 130 -53 252 -102 271 -111 19 -8 101 -41 182 -74
81 -32 144 -62 140 -65 -4 -4 -83 -37 -177 -74 -93 -37 -188 -75 -210 -84 -22
-10 -135 -55 -252 -101 -117 -46 -211 -85 -210 -86 1 -1 119 -45 262 -98 143
-53 287 -108 320 -121 33 -13 141 -53 240 -90 99 -36 189 -70 200 -75 27 -11
186 -70 191 -70 2 0 4 35 4 79 l0 79 -182 65 c-101 37 -221 80 -268 97 -47 17
-105 38 -130 46 -25 8 -54 19 -65 24 -11 5 -59 23 -107 41 l-88 32 358 145
c196 79 375 152 397 161 22 9 50 21 63 27 19 8 2 17 -125 68 -82 33 -170 69
-198 81 -27 12 -150 62 -272 111 -121 49 -216 92 -210 95 7 4 152 57 322 119
171 61 354 127 408 147 l97 35 0 79 c0 43 -3 79 -7 78 -5 0 -24 -6 -43 -14z"/>
<path d="M4880 11848 l0 -78 610 0 610 0 0 79 0 78 -610 0 -610 0 0 -79z"/>
<path d="M6336 11911 c-3 -9 -4 -44 -4 -78 l0 -63 79 0 79 0 0 78 0 79 -75 0
c-61 1 -75 -2 -79 -16z"/>
<path d="M5968 11426 l-3 -101 -540 0 -540 0 -3 -75 -3 -75 546 0 545 0 0
-106 c0 -77 4 -108 13 -111 10 -4 42 -3 105 1 9 1 12 30 12 109 l0 107 183 0
c100 -1 188 1 195 3 8 3 12 27 12 76 l0 71 -192 0 -193 0 -5 100 -5 100 -62 1
-62 1 -3 -101z"/>
<path d="M4928 10732 l-48 -3 0 -75 0 -74 368 -1 c383 0 395 -1 477 -20 47
-11 128 -50 150 -73 100 -104 116 -307 34 -427 -22 -31 -106 -75 -169 -86 -25
-5 -228 -9 -452 -8 l-408 0 0 -78 0 -77 453 1 c501 1 522 3 614 64 91 60 140
153 150 285 11 152 -36 279 -137 373 l-59 55 477 0 477 -1 2 72 2 71 -57 0
c-31 0 -455 1 -942 3 -487 1 -906 1 -932 -1z"/>
</g>
</svg>
